<svg width="26" height="26" viewBox="0 0 26 26" fill="none" xmlns="http://www.w3.org/2000/svg">
<path d="M21.75 11.75H4.25M21.75 11.75C22.413 11.75 23.0489 12.0134 23.5178 12.4822C23.9866 12.9511 24.25 13.587 24.25 14.25V21.75C24.25 22.413 23.9866 23.0489 23.5178 23.5178C23.0489 23.9866 22.413 24.25 21.75 24.25H4.25C3.58696 24.25 2.95107 23.9866 2.48223 23.5178C2.01339 23.0489 1.75 22.413 1.75 21.75V14.25C1.75 13.587 2.01339 12.9511 2.48223 12.4822C2.95107 12.0134 3.58696 11.75 4.25 11.75M21.75 11.75V9.25C21.75 8.58696 21.4866 7.95107 21.0178 7.48223C20.5489 7.01339 19.913 6.75 19.25 6.75M21.75 11.75L19.25 6.75M4.25 11.75V9.25C4.25 8.58696 4.51339 7.95107 4.98223 7.48223C5.45107 7.01339 6.08696 6.75 6.75 6.75M4.25 11.75L6.75 6.75M19.25 6.75V4.25C19.25 3.58696 18.9866 2.95107 18.5178 2.48223C18.0489 2.01339 17.413 1.75 16.75 1.75H9.25C8.58696 1.75 7.95107 2.01339 7.48223 2.48223C7.01339 2.95107 6.75 3.58696 6.75 4.25V6.75M19.25 6.75H6.75" stroke="white" stroke-width="2" stroke-linecap="round" stroke-linejoin="round"/>
</svg>
